<svg xmlns="http://www.w3.org/2000/svg" xmlns:xlink="http://www.w3.org/1999/xlink" width="660" height="300" viewBox="0 0 660 300"><defs><style>.a,.c{fill:#f8f8fc;}.b{fill:#a8a4c3;}.b,.c,.d,.g,.h,.l,.m,.n{stroke:#676096;}.b,.c,.d,.e,.g,.h,.i,.k,.l,.m,.n,.o,.p,.u,.v{stroke-linecap:round;stroke-linejoin:round;}.b,.c,.d,.e,.g,.h,.i,.k,.l,.m,.n,.o,.p{stroke-width:1.5px;}.b,.c,.d,.e,.f,.g,.h,.l,.n,.o,.p,.q{fill-rule:evenodd;}.d,.m,.t,.u,.v{fill:none;}.e,.k,.s{fill:#ff7800;}.e,.k,.t,.u,.v{stroke:#ff7800;}.f,.j{fill:#676096;}.g,.p{fill:#d4d2e6;}.h{fill:#f4f3fa;}.i{fill:#261c6a;stroke:#261c6a;}.l{fill:#7d77a6;}.n{fill:#e9e8f3;}.o{fill:#2d364c;stroke:#2d364c;}.p{stroke:#d4d2e6;}.q{fill:url(#a);}.r{fill:#fff;}.t{stroke-miterlimit:10;}.u{stroke-width:3px;}.v{stroke-width:2px;}</style><linearGradient id="a" x1="218.97" y1="133.79" x2="514.69" y2="133.79" gradientUnits="userSpaceOnUse"><stop offset="0" stop-color="#ff7800" stop-opacity="0.5"/><stop offset="0.15" stop-color="#ff7800" stop-opacity="0.47"/><stop offset="0.39" stop-color="#ff7800" stop-opacity="0.37"/><stop offset="0.7" stop-color="#ff7800" stop-opacity="0.23"/><stop offset="1" stop-color="#ff7800" stop-opacity="0.05"/></linearGradient></defs><rect class="a" width="660" height="300"/><path class="b" d="M470.17,250.46a13.46,13.46,0,0,0-.2,3.08v11.53a3.49,3.49,0,0,0,.4,1.67,5.06,5.06,0,0,0,.71,1,4.15,4.15,0,0,0,2.88,1.16h42.39a4,4,0,0,0,2.88-1.16,8.08,8.08,0,0,0,.76-1,6,6,0,0,0,.25-.61,5.23,5.23,0,0,0,.2-1.06V253.54a11.52,11.52,0,0,0-5.1-10.45,26.47,26.47,0,0,0-10.19-3.93,17.89,17.89,0,0,1-6.36,4.59,10.31,10.31,0,0,1-7.22,0,17.89,17.89,0,0,1-6.36-4.59Q471.74,241.83,470.17,250.46Z"/><path class="c" d="M505.5,208.52a18.5,18.5,0,0,1,4.14,9.69v.1c0,.44.07.88.1,1.32v.15a3.69,3.69,0,0,1,.76.5l.55.56a4.72,4.72,0,0,1,1,3.08,4.91,4.91,0,0,1-1,3.12,3.2,3.2,0,0,1-2.47,1.32,17.79,17.79,0,0,1-3.08,5.35,12.87,12.87,0,0,1-10.29,5.19,13,13,0,0,1-10.35-5.19,16.85,16.85,0,0,1-3-5.35,3.17,3.17,0,0,1-2.42-1.32,5,5,0,0,1-.46-5.6,1.67,1.67,0,0,1,.46-.6,3,3,0,0,1,1.26-1v-.2c0-.48.08-.95.15-1.42a17.84,17.84,0,0,1,4-9.69,13,13,0,0,1,10.35-5.2A12.88,12.88,0,0,1,505.5,208.52Z"/><path class="d" d="M480.67,219.83q3.78-8.09,8.18-9.54,3.88-1.22,8.32,3.23a23.62,23.62,0,0,0,12.57,6.26"/><path class="e" d="M488.85,210.29q3.88-1.22,8.32,3.23a23.62,23.62,0,0,0,12.57,6.26v-.15c0-.44-.07-.88-.1-1.32v-.1a18.5,18.5,0,0,0-4.14-9.69,12.88,12.88,0,0,0-10.29-5.2,13,13,0,0,0-10.35,5.2,17.84,17.84,0,0,0-4,9.69c-.07.47-.12.94-.15,1.42v.2Q484.45,211.75,488.85,210.29Z"/><path class="d" d="M499.88,230.64a8.21,8.21,0,0,1-9.35,0"/><path class="f" d="M503.94,222.79a1.64,1.64,0,0,1-.5,1.18,1.6,1.6,0,0,1-1.18.5,1.57,1.57,0,0,1-1.17-.5,1.61,1.61,0,0,1-.51-1.18,1.49,1.49,0,0,1,.51-1.17,1.58,1.58,0,0,1,1.17-.51,1.61,1.61,0,0,1,1.18.51A1.51,1.51,0,0,1,503.94,222.79Z"/><path class="f" d="M489.32,221.62a1.49,1.49,0,0,1,.51,1.17,1.61,1.61,0,0,1-.51,1.18,1.57,1.57,0,0,1-1.17.5A1.6,1.6,0,0,1,487,224a1.64,1.64,0,0,1-.5-1.18,1.51,1.51,0,0,1,.5-1.17,1.61,1.61,0,0,1,1.18-.51A1.58,1.58,0,0,1,489.32,221.62Z"/><path class="g" d="M470.17,164.85a13.42,13.42,0,0,0-.2,3.08v11.53a3.46,3.46,0,0,0,.41,1.66,4.39,4.39,0,0,0,.7,1,4.15,4.15,0,0,0,2.88,1.16h42.39a4,4,0,0,0,2.88-1.16,6.67,6.67,0,0,0,.76-1,5.09,5.09,0,0,0,.25-.6,5.23,5.23,0,0,0,.2-1.06V167.93a11.51,11.51,0,0,0-5.1-10.45,26.47,26.47,0,0,0-10.19-3.94,17.89,17.89,0,0,1-6.36,4.59,10.2,10.2,0,0,1-7.22,0,17.89,17.89,0,0,1-6.36-4.59Q471.74,156.23,470.17,164.85Z"/><path class="h" d="M505.53,123a19.56,19.56,0,0,1,4.05,9.64v.06c0,.48.06.91.06,1.3.17.13.39.28.64.45l.58.58a5.31,5.31,0,0,1,0,6.46v.07a3.36,3.36,0,0,1-2.4,1.22,21.27,21.27,0,0,1-3,5.29,13,13,0,0,1-10.29,5.08A13.13,13.13,0,0,1,484.86,148a16.64,16.64,0,0,1-2.83-5.31,3.44,3.44,0,0,1-2.52-1.23l-.06-.07a5.44,5.44,0,0,1-1-3.16,5.56,5.56,0,0,1,.59-2.59,2.9,2.9,0,0,1,.46-.71,4.9,4.9,0,0,1,1.29-1v-1.42a18.09,18.09,0,0,1,4.1-9.62,13.29,13.29,0,0,1,8.8-5,4.39,4.39,0,0,1,1-1.42,4.77,4.77,0,0,1,3.49-1.41,5.08,5.08,0,0,1,4.9,4.86,2.79,2.79,0,0,1-.07.64A25,25,0,0,1,505.53,123Zm-12.23,6.56c-2.41,2.19-6.58,3.67-12.48,4.43m28.82,0q-7.75-2.61-9.42-6.17"/><path class="i" d="M498.56,122.16a18.25,18.25,0,0,0,1.66,5.69q1.66,3.57,9.42,6.17c0-.39,0-.82-.06-1.3v-.06a19.56,19.56,0,0,0-4.05-9.64,23.89,23.89,0,0,0-2.45-2.4,2.79,2.79,0,0,0,.07-.64,5.08,5.08,0,0,0-4.9-4.86,4.77,4.77,0,0,0-3.49,1.41,4.39,4.39,0,0,0-1,1.42,13.29,13.29,0,0,0-8.8,5,18.09,18.09,0,0,0-4.1,9.62V134c5.9-.76,10.07-2.24,12.48-4.43A17.7,17.7,0,0,0,498.56,122.16Z"/><path class="d" d="M499.32,145.74A6.79,6.79,0,0,1,495.2,147a6.69,6.69,0,0,1-4.12-1.3"/><circle class="j" cx="489.68" cy="137.93" r="1.51"/><circle class="j" cx="500.76" cy="137.93" r="1.51"/><circle class="k" cx="586.27" cy="132.11" r="6.14"/><path class="l" d="M546.71,164.86a13.44,13.44,0,0,0-.21,3.08v11.53a3.46,3.46,0,0,0,.41,1.66,4.24,4.24,0,0,0,.71,1,4.1,4.1,0,0,0,2.87,1.16h42.4a4,4,0,0,0,2.87-1.16,5.68,5.68,0,0,0,.76-1,3.82,3.82,0,0,0,.25-.6,5.23,5.23,0,0,0,.2-1.06V167.94a11.53,11.53,0,0,0-5.09-10.45,26.58,26.58,0,0,0-10.2-3.93,17.72,17.72,0,0,1-6.36,4.59,10.28,10.28,0,0,1-7.21,0,17.72,17.72,0,0,1-6.36-4.59Q548.27,156.23,546.71,164.86Z"/><path class="c" d="M582,122.92a18.57,18.57,0,0,1,4.13,9.69v.1c0,.44.07.88.1,1.31v.15a3.89,3.89,0,0,1,.76.51l.56.56a4.77,4.77,0,0,1,1,3.07,5,5,0,0,1-1,3.13,3.22,3.22,0,0,1-2.48,1.31A17.53,17.53,0,0,1,582,148.1a12.85,12.85,0,0,1-10.3,5.2,13,13,0,0,1-10.35-5.2,16.79,16.79,0,0,1-3-5.35,3.17,3.17,0,0,1-2.43-1.31,4.68,4.68,0,0,1-1.11-3.13,4.58,4.58,0,0,1,.66-2.47,1.56,1.56,0,0,1,.45-.6,3.07,3.07,0,0,1,1.26-1V134c0-.47.09-.94.16-1.41a17.9,17.9,0,0,1,4-9.69,13,13,0,0,1,10.35-5.2A12.85,12.85,0,0,1,582,122.92Z"/><path class="e" d="M565.35,124.69q3.9-1.22,8.37,3.23a23.73,23.73,0,0,0,12.62,6.25V134c0-.43-.07-.87-.1-1.31v-.1a18.44,18.44,0,0,0-4.16-9.69,12.91,12.91,0,0,0-10.34-5.2,13,13,0,0,0-10.39,5.2,17.86,17.86,0,0,0-4.06,9.69q-.1.7-.15,1.41v.21Q560.93,126.15,565.35,124.69Z"/><path class="f" d="M580.48,137.19a1.61,1.61,0,0,1-.51,1.18,1.58,1.58,0,0,1-1.17.5,1.71,1.71,0,0,1-1.68-1.68,1.48,1.48,0,0,1,.5-1.17,1.61,1.61,0,0,1,1.18-.51A1.59,1.59,0,0,1,580,136,1.49,1.49,0,0,1,580.48,137.19Z"/><path class="f" d="M565.86,136a1.48,1.48,0,0,1,.5,1.17,1.71,1.71,0,0,1-1.68,1.68,1.58,1.58,0,0,1-1.17-.5,1.61,1.61,0,0,1-.51-1.18,1.49,1.49,0,0,1,.51-1.17,1.59,1.59,0,0,1,1.17-.51A1.61,1.61,0,0,1,565.86,136Z"/><line class="m" x1="566.71" y1="145.61" x2="576.77" y2="145.61"/><line class="m" x1="562.32" y1="134.23" x2="567.04" y2="134.23"/><path class="b" d="M393.59,164.86a13.46,13.46,0,0,0-.2,3.08v11.53a3.45,3.45,0,0,0,.4,1.66,4.55,4.55,0,0,0,.71,1,4.1,4.1,0,0,0,2.88,1.16h42.39a4,4,0,0,0,2.88-1.16,6.13,6.13,0,0,0,.75-1,3.89,3.89,0,0,0,.26-.6,5.23,5.23,0,0,0,.2-1.06V167.94a11.52,11.52,0,0,0-5.1-10.45,26.47,26.47,0,0,0-10.19-3.93,17.89,17.89,0,0,1-6.36,4.59,10.31,10.31,0,0,1-7.22,0,17.89,17.89,0,0,1-6.36-4.59Q395.16,156.23,393.59,164.86Z"/><path class="c" d="M428.92,122.92a18.5,18.5,0,0,1,4.14,9.69v.1c0,.44.07.88.1,1.31v.15a4.21,4.21,0,0,1,.76.51l.55.56a4.77,4.77,0,0,1,1,3.07,5,5,0,0,1-1,3.13,3.2,3.2,0,0,1-2.47,1.31,17.56,17.56,0,0,1-3.08,5.35,12.84,12.84,0,0,1-20.64,0,16.63,16.63,0,0,1-3-5.35,3.16,3.16,0,0,1-2.42-1.31,5,5,0,0,1-.46-5.6,1.49,1.49,0,0,1,.46-.6,3,3,0,0,1,1.26-1V134q0-.71.15-1.41a17.84,17.84,0,0,1,4-9.69,12.84,12.84,0,0,1,20.64,0Z"/><path class="f" d="M427.36,137.19a1.64,1.64,0,0,1-.5,1.18,1.64,1.64,0,0,1-2.36,0,1.64,1.64,0,0,1-.5-1.18,1.51,1.51,0,0,1,.5-1.17,1.62,1.62,0,0,1,2.36,0A1.51,1.51,0,0,1,427.36,137.19Z"/><path class="f" d="M412.74,136a1.49,1.49,0,0,1,.51,1.17,1.61,1.61,0,0,1-.51,1.18,1.57,1.57,0,0,1-1.17.5,1.6,1.6,0,0,1-1.18-.5,1.64,1.64,0,0,1-.5-1.18,1.51,1.51,0,0,1,.5-1.17,1.61,1.61,0,0,1,1.18-.51A1.58,1.58,0,0,1,412.74,136Z"/><line class="m" x1="409.21" y1="134.23" x2="413.93" y2="134.23"/><line class="m" x1="423.32" y1="134.14" x2="428.04" y2="134.14"/><path class="d" d="M423.28,145.64a8.23,8.23,0,0,1-9.36,0"/><path class="n" d="M546.68,79.26a13.42,13.42,0,0,0-.2,3.08V93.87a3.46,3.46,0,0,0,.41,1.66,4.39,4.39,0,0,0,.7,1,4.1,4.1,0,0,0,2.88,1.16h42.39a4,4,0,0,0,2.88-1.16,6.67,6.67,0,0,0,.76-1,5.09,5.09,0,0,0,.25-.6,5.23,5.23,0,0,0,.2-1.06V82.34a11.51,11.51,0,0,0-5.1-10.45A26.47,26.47,0,0,0,581.66,68a17.93,17.93,0,0,1-6.36,4.6,10.31,10.31,0,0,1-7.22,0,17.93,17.93,0,0,1-6.36-4.6Q548.25,70.63,546.68,79.26Z"/><path class="g" d="M582,37.32A18.5,18.5,0,0,1,586.15,47v.1c0,.44.07.87.1,1.31v.15a4.21,4.21,0,0,1,.76.51l.55.55a4.74,4.74,0,0,1,1,3.08,4.94,4.94,0,0,1-1,3.13,3.19,3.19,0,0,1-2.47,1.31A17.67,17.67,0,0,1,582,62.5a12.84,12.84,0,0,1-10.29,5.2,13,13,0,0,1-10.35-5.2,16.74,16.74,0,0,1-3-5.35,3.16,3.16,0,0,1-2.42-1.31,5,5,0,0,1-.46-5.6,1.73,1.73,0,0,1,.46-.61,3.11,3.11,0,0,1,1.26-1v-.2q0-.7.15-1.41a17.91,17.91,0,0,1,4-9.69,13,13,0,0,1,10.35-5.2A12.84,12.84,0,0,1,582,37.32Z"/><path class="d" d="M557.18,48.62q3.78-8.07,8.18-9.54,3.89-1.2,8.32,3.23a23.55,23.55,0,0,0,12.57,6.26"/><path class="o" d="M565.36,39.08q3.89-1.2,8.32,3.23a23.55,23.55,0,0,0,12.57,6.26v-.15c0-.44-.07-.87-.1-1.31V47A18.5,18.5,0,0,0,582,37.32a12.84,12.84,0,0,0-10.29-5.2,13,13,0,0,0-10.35,5.2,17.91,17.91,0,0,0-4,9.69q-.11.7-.15,1.41v.2Q561,40.55,565.36,39.08Z"/><path class="f" d="M580.86,51.86a2,2,0,0,1-3.91,0,1.73,1.73,0,0,1,.59-1.36,1.87,1.87,0,0,1,2.73,0A1.73,1.73,0,0,1,580.86,51.86Z"/><path class="f" d="M565.94,50.5a1.73,1.73,0,0,1,.59,1.36,2,2,0,0,1-3.91,0,1.73,1.73,0,0,1,.59-1.36,1.87,1.87,0,0,1,1.36-.59A1.89,1.89,0,0,1,565.94,50.5Z"/><line class="m" x1="566.71" y1="60.18" x2="576.77" y2="60.18"/><path class="l" d="M546.73,250.46a13.46,13.46,0,0,0-.2,3.08v11.53a3.49,3.49,0,0,0,.4,1.67,5.06,5.06,0,0,0,.71,1,4.14,4.14,0,0,0,2.87,1.16h42.4a4,4,0,0,0,2.88-1.16,7.1,7.1,0,0,0,.75-1,6.19,6.19,0,0,0,.26-.61,6,6,0,0,0,.2-1.06V253.54a11.52,11.52,0,0,0-5.1-10.45,26.47,26.47,0,0,0-10.19-3.93,17.89,17.89,0,0,1-6.36,4.59,10.31,10.31,0,0,1-7.22,0,17.89,17.89,0,0,1-6.36-4.59Q548.3,241.83,546.73,250.46Z"/><path class="b" d="M582.06,208.52a18.5,18.5,0,0,1,4.14,9.69v.1c0,.44.06.88.1,1.32v.15a3.69,3.69,0,0,1,.76.5l.55.56a4.77,4.77,0,0,1,1,3.08,5,5,0,0,1-1,3.12,3.21,3.21,0,0,1-2.47,1.32,18,18,0,0,1-3.08,5.35,12.87,12.87,0,0,1-10.3,5.19,13,13,0,0,1-10.34-5.19,16.85,16.85,0,0,1-3-5.35A3.17,3.17,0,0,1,556,227a4.66,4.66,0,0,1-1.11-3.12,4.59,4.59,0,0,1,.65-2.48,1.56,1.56,0,0,1,.46-.6,3,3,0,0,1,1.26-1v-.2c0-.48.08-.95.15-1.42a17.84,17.84,0,0,1,4-9.69,13,13,0,0,1,10.34-5.2A12.88,12.88,0,0,1,582.06,208.52Z"/><path class="f" d="M579.6,222.79a1.71,1.71,0,0,1-1.68,1.68,1.58,1.58,0,0,1-1.17-.5,1.61,1.61,0,0,1-.51-1.18,1.49,1.49,0,0,1,.51-1.17,1.59,1.59,0,0,1,1.17-.51,1.61,1.61,0,0,1,1.18.51A1.48,1.48,0,0,1,579.6,222.79Z"/><path class="f" d="M566.78,221.62a1.51,1.51,0,0,1,.5,1.17,1.64,1.64,0,0,1-.5,1.18,1.6,1.6,0,0,1-1.18.5,1.57,1.57,0,0,1-1.17-.5,1.61,1.61,0,0,1-.51-1.18,1.49,1.49,0,0,1,.51-1.17,1.58,1.58,0,0,1,1.17-.51A1.61,1.61,0,0,1,566.78,221.62Z"/><path class="d" d="M576.44,231.79a8.23,8.23,0,0,1-9.36,0"/><path class="p" d="M515.38,60.18A12.23,12.23,0,0,0,515.8,57a12.34,12.34,0,0,0-20.58-9.19,12.32,12.32,0,0,0-20.16,12.35,12.34,12.34,0,0,0,14.29,20.13,12.34,12.34,0,0,0,12.89.72,12.35,12.35,0,0,0,13.14-20.85Z"/><path class="b" d="M470.19,79.23a13.44,13.44,0,0,0-.21,3.08V93.84a3.5,3.5,0,0,0,.41,1.67,5,5,0,0,0,.7,1A4.16,4.16,0,0,0,474,97.68h42.4a4,4,0,0,0,2.87-1.16,6.51,6.51,0,0,0,.76-1,4.36,4.36,0,0,0,.25-.61,5.23,5.23,0,0,0,.2-1.06V82.31a11.53,11.53,0,0,0-5.09-10.45,26.58,26.58,0,0,0-10.2-3.93,17.72,17.72,0,0,1-6.36,4.59,10.28,10.28,0,0,1-7.21,0,17.72,17.72,0,0,1-6.36-4.59Q471.75,70.6,470.19,79.23Z"/><path class="c" d="M505.51,37.29A18.5,18.5,0,0,1,509.65,47v.1c0,.44.07.88.1,1.32v.15a3.44,3.44,0,0,1,.76.5l.56.56a4.77,4.77,0,0,1,1,3.08,5,5,0,0,1-1,3.12,3.23,3.23,0,0,1-2.48,1.32,17.59,17.59,0,0,1-3.08,5.35,12.85,12.85,0,0,1-10.29,5.2,13,13,0,0,1-10.35-5.2,17.24,17.24,0,0,1-3-5.35,3.18,3.18,0,0,1-2.42-1.32,4.66,4.66,0,0,1-1.11-3.12,4.59,4.59,0,0,1,.66-2.48,1.64,1.64,0,0,1,.45-.6,3.16,3.16,0,0,1,1.26-1v-.2c0-.48.09-.95.16-1.42a17.9,17.9,0,0,1,4-9.69,13,13,0,0,1,10.35-5.2A12.85,12.85,0,0,1,505.51,37.29Z"/><path class="p" d="M488.86,39c2.59-.81,5.38.27,8.34,3.24a23.57,23.57,0,0,0,12.59,6.29v-.15c0-.44-.07-.88-.1-1.32V47a18.67,18.67,0,0,0-4.15-9.74A12.86,12.86,0,0,0,495.23,32a13,13,0,0,0-10.36,5.22A18,18,0,0,0,480.82,47c-.07.47-.12.95-.15,1.42v.2Q484.47,40.46,488.86,39Z"/><path class="d" d="M499.9,59.41a8.23,8.23,0,0,1-9.36,0"/><path class="f" d="M504,52.46a1.73,1.73,0,0,1-1.68,1.68,1.64,1.64,0,0,1-1.18-.5,1.6,1.6,0,0,1-.5-1.18,1.49,1.49,0,0,1,.5-1.18,1.64,1.64,0,0,1,1.18-.5,1.62,1.62,0,0,1,1.17.5A1.49,1.49,0,0,1,504,52.46Z"/><path class="f" d="M489.34,51.28a1.52,1.52,0,0,1,.5,1.18,1.71,1.71,0,0,1-1.68,1.68,1.73,1.73,0,0,1-1.68-1.68,1.49,1.49,0,0,1,.51-1.18,1.6,1.6,0,0,1,1.17-.5A1.64,1.64,0,0,1,489.34,51.28Z"/><path class="o" d="M438.81,231.52a12.33,12.33,0,0,0-20.16-12.36,12.34,12.34,0,0,0-20.59,9.19,12.75,12.75,0,0,0,.42,3.17,12.34,12.34,0,0,0,14.3,20.12,12.34,12.34,0,0,0,12.89.72,12.35,12.35,0,0,0,13.14-20.84Z"/><path class="n" d="M393.61,250.57a13.37,13.37,0,0,0-.2,3.07v11.53a3.5,3.5,0,0,0,.41,1.67,4.39,4.39,0,0,0,.7,1A4.15,4.15,0,0,0,397.4,269h42.39a4,4,0,0,0,2.88-1.16,6.67,6.67,0,0,0,.76-1,4.6,4.6,0,0,0,.25-.61,5.1,5.1,0,0,0,.2-1.06V253.64a11.49,11.49,0,0,0-5.1-10.44,26.31,26.31,0,0,0-10.19-3.94,17.89,17.89,0,0,1-6.36,4.59,10.2,10.2,0,0,1-7.22,0,17.89,17.89,0,0,1-6.36-4.59Q395.18,241.95,393.61,250.57Z"/><path class="b" d="M428.94,208.63a18.43,18.43,0,0,1,4.14,9.69v.1c0,.43.07.87.1,1.31v.15a3.69,3.69,0,0,1,.76.5l.55.56a4.74,4.74,0,0,1,1,3.08,5,5,0,0,1-1,3.13,3.19,3.19,0,0,1-2.47,1.31,17.59,17.59,0,0,1-3.08,5.35,12.84,12.84,0,0,1-10.29,5.2,13,13,0,0,1-10.35-5.2,17.24,17.24,0,0,1-3-5.35,3.16,3.16,0,0,1-2.42-1.31,4.7,4.7,0,0,1-1.11-3.13,4.56,4.56,0,0,1,.66-2.47,1.59,1.59,0,0,1,.45-.61,3.11,3.11,0,0,1,1.26-1v-.2q.06-.71.15-1.41a17.85,17.85,0,0,1,4-9.69,13,13,0,0,1,10.35-5.2A12.84,12.84,0,0,1,428.94,208.63Z"/><path class="o" d="M412.29,210.32q3.88-1.22,8.34,3.25a23.61,23.61,0,0,0,12.59,6.29v-.16c0-.44-.07-.88-.1-1.31v-.11a18.72,18.72,0,0,0-4.15-9.73,12.88,12.88,0,0,0-10.31-5.23q-6.07,0-10.37,5.23a18,18,0,0,0-4,9.73c-.07.48-.12.95-.15,1.42v.21Q407.9,211.8,412.29,210.32Z"/><path class="d" d="M423.33,229.84a8.18,8.18,0,0,1-9.36,0"/><path class="f" d="M427.57,223.36a2.12,2.12,0,0,1-3.65,1.5,2.09,2.09,0,0,1-.64-1.5,1.93,1.93,0,0,1,.64-1.5,2.09,2.09,0,0,1,3,0A1.9,1.9,0,0,1,427.57,223.36Z"/><path class="f" d="M413.27,221.86a1.91,1.91,0,0,1,.65,1.5,2.15,2.15,0,0,1-4.29,0,1.9,1.9,0,0,1,.64-1.5,2.08,2.08,0,0,1,3,0Z"/><path class="e" d="M428.37,70.05a7.21,7.21,0,0,0,8.66.32c-4.93-3.28-6.61-9.75-6.61-9.75S428.37,67.78,428.37,70.05Z"/><path class="e" d="M409.42,70.05a7.21,7.21,0,0,1-8.66.32c4.93-3.28,6.61-9.75,6.61-9.75S409.42,67.78,409.42,70.05Z"/><path class="g" d="M428.06,49.34a15,15,0,0,1,3.69,8.11v.08l.09,1.1v.13a3.13,3.13,0,0,1,.67.42l.5.46a3.85,3.85,0,0,1,.9,2.58,4,4,0,0,1-.9,2.62,2.94,2.94,0,0,1-2.2,1.09,14.57,14.57,0,0,1-2.75,4.48,11.69,11.69,0,0,1-9.16,4.35,11.82,11.82,0,0,1-9.21-4.35,13.87,13.87,0,0,1-2.7-4.48,2.89,2.89,0,0,1-2.16-1.09,3.8,3.8,0,0,1-1-2.62,3.67,3.67,0,0,1,.59-2.07,1.32,1.32,0,0,1,.4-.51A2.75,2.75,0,0,1,406,58.8v-.17c0-.4.07-.79.13-1.18a14.49,14.49,0,0,1,3.6-8.11A11.82,11.82,0,0,1,418.9,45,11.69,11.69,0,0,1,428.06,49.34Z"/><path class="g" d="M423.06,67.28a7.32,7.32,0,0,1-8.33,0"/><circle class="j" cx="423.89" cy="59.6" r="1.91"/><circle class="j" cx="413.91" cy="59.6" r="1.91"/><path class="e" d="M413.32,50q3.44-1.05,7.35,2.81a21,21,0,0,0,11.1,5.44v-.13L431.68,57v-.09A16,16,0,0,0,428,48.5,11.38,11.38,0,0,0,418.93,44a11.52,11.52,0,0,0-9.13,4.52,15.31,15.31,0,0,0-3.56,8.42c-.06.41-.11.82-.14,1.23v.17Q409.44,51.3,413.32,50Z"/><path class="b" d="M399.81,81.9a5.21,5.21,0,0,0-.15,1.69V95.51a1.48,1.48,0,0,0,.31.92,2.78,2.78,0,0,0,.54.55,3.84,3.84,0,0,0,2.2.64h32.38a3.24,3.24,0,0,0,2.77-1.19,1.94,1.94,0,0,0,.2-.33,2.32,2.32,0,0,0,.15-.59V83.59q.19-3.66-3.89-5.74a25.31,25.31,0,0,0-7.79-2.16,14.33,14.33,0,0,1-4.86,2.52,10.72,10.72,0,0,1-5.51,0,14.52,14.52,0,0,1-4.86-2.52Q401,77.16,399.81,81.9Z"/><polygon class="q" points="514.69 151.24 218.97 191.65 218.97 75.93 514.69 115.37 514.69 151.24"/><rect class="r" x="83" y="36.67" width="157.71" height="192.6"/><path class="b" d="M83,36.67H240.71V31.23q0-21.76-21.76-21.75H104.75Q83,9.48,83,31.23v199m157.71,0H83v34.81q0,21.75,21.75,21.75H219q21.77,0,21.76-21.75V36.67"/><path class="d" d="M152.61,247.68a12.87,12.87,0,0,1,9.51-3.81,13.5,13.5,0,0,1,9.52,3.81,13.32,13.32,0,0,1,4.08,9.78,13.94,13.94,0,0,1-13.6,13.6,12.44,12.44,0,0,1-9.51-4.08,13,13,0,0,1-4.08-9.52A13.32,13.32,0,0,1,152.61,247.68Z"/><path class="h" d="M185.28,100.82a44.82,44.82,0,0,1,9.29,22.11v.15c.09,1.09.14,2.08.14,3,.39.29.89.64,1.48,1l1.33,1.33a12.16,12.16,0,0,1,0,14.83v.15a7.66,7.66,0,0,1-5.49,2.8,49,49,0,0,1-6.85,12.14Q175.32,170,161.53,170t-23.69-11.78a38,38,0,0,1-6.49-12.17,7.94,7.94,0,0,1-5.78-2.83l-.15-.15a12.63,12.63,0,0,1-2.2-7.27,12.39,12.39,0,0,1,1.35-5.93,6.14,6.14,0,0,1,1-1.63,11.65,11.65,0,0,1,3-2.21v-3.26A41.51,41.51,0,0,1,138,100.7q8.63-10.22,20.2-11.52a9.78,9.78,0,0,1,2.38-3.25,10.91,10.91,0,0,1,8-3.25,11.67,11.67,0,0,1,11.24,11.15,7.53,7.53,0,0,1-.15,1.49A56.58,56.58,0,0,1,185.28,100.82Zm-28.06,15.05q-8.33,7.55-28.64,10.16m66.13,0q-17.78-6-21.61-14.14"/><path class="i" d="M169.27,98.87a42.36,42.36,0,0,0,3.82,13.06q3.84,8.16,21.62,14.14c0-.89-.05-1.88-.14-3V123a44.82,44.82,0,0,0-9.29-22.11,56.58,56.58,0,0,0-5.62-5.5,7.53,7.53,0,0,0,.15-1.49,11.65,11.65,0,0,0-11.24-11.14,10.87,10.87,0,0,0-8,3.24,9.78,9.78,0,0,0-2.38,3.25q-11.56,1.3-20.2,11.52a41.51,41.51,0,0,0-9.39,22.07v3.26q20.32-2.62,28.64-10.16Q166.28,107.76,169.27,98.87Z"/><path class="g" d="M118.32,177.89q-14.65,8.76-14,25.18L102.65,221a8.93,8.93,0,0,0,1,3.71,20.15,20.15,0,0,0,1.78,2.38,8.87,8.87,0,0,0,6.51,2.68l22.47.06,77,.18a8.83,8.83,0,0,0,6.53-2.65,18.44,18.44,0,0,0,1.79-2.37,9,9,0,0,0,1-3.7l-1.93-17.94q1.09-25.5-34.76-32.7-7.14,7.54-14.41,10.34a22.9,22.9,0,0,1-8.75,1.46,26.33,26.33,0,0,1-7.71-1.5q-7.26-2.83-14.36-10.42A64.1,64.1,0,0,0,121.78,176Z"/><path class="d" d="M171,153a16.57,16.57,0,0,1-18.89,0"/><circle class="j" cx="148.9" cy="135.05" r="3.46"/><circle class="j" cx="174.32" cy="135.05" r="3.46"/><circle class="s" cx="148.9" cy="125.53" r="1.81"/><circle class="s" cx="161.56" cy="131.43" r="1.81"/><circle class="s" cx="161.56" cy="148.1" r="1.81"/><circle class="s" cx="161.56" cy="164.77" r="1.81"/><circle class="s" cx="148.9" cy="143.33" r="1.81"/><circle class="s" cx="148.9" cy="159.09" r="1.81"/><circle class="s" cx="136.24" cy="135.05" r="1.81"/><circle class="s" cx="139.86" cy="150.74" r="1.81"/><circle class="s" cx="148.9" cy="125.53" r="1.81"/><circle class="s" cx="161.56" cy="131.43" r="1.81"/><circle class="s" cx="161.56" cy="148.1" r="1.81"/><circle class="s" cx="161.56" cy="164.77" r="1.81"/><circle class="s" cx="148.9" cy="143.33" r="1.81"/><circle class="s" cx="148.9" cy="159.09" r="1.81"/><circle class="s" cx="136.24" cy="135.05" r="1.81"/><circle class="s" cx="139.86" cy="150.74" r="1.81"/><line class="t" x1="148.9" y1="125.53" x2="161.04" y2="131.75"/><line class="t" x1="148.9" y1="143.33" x2="161.04" y2="131.75"/><line class="t" x1="136.24" y1="135.05" x2="148.9" y2="125.53"/><line class="t" x1="148.9" y1="143.68" x2="136.7" y2="135.05"/><line class="t" x1="161.56" y1="148.1" x2="148.9" y2="143.68"/><line class="t" x1="135.94" y1="135.05" x2="139.86" y2="150.74"/><line class="t" x1="148.9" y1="159.09" x2="140.23" y2="150.94"/><line class="t" x1="161.62" y1="165.16" x2="148.9" y2="159.09"/><line class="t" x1="148.9" y1="143.33" x2="148.9" y2="159.09"/><line class="t" x1="161.64" y1="148.1" x2="149.3" y2="159.09"/><circle class="s" cx="174.32" cy="125.53" r="1.81"/><circle class="s" cx="161.66" cy="131.43" r="1.81"/><circle class="s" cx="161.66" cy="148.1" r="1.81"/><circle class="s" cx="161.66" cy="164.77" r="1.81"/><circle class="s" cx="174.32" cy="143.33" r="1.81"/><circle class="s" cx="174.32" cy="159.09" r="1.81"/><circle class="s" cx="186.98" cy="135.05" r="1.81"/><circle class="s" cx="183.37" cy="150.74" r="1.81"/><circle class="s" cx="174.32" cy="125.53" r="1.81"/><circle class="s" cx="174.32" cy="143.33" r="1.81"/><circle class="s" cx="174.32" cy="159.09" r="1.81"/><circle class="s" cx="186.98" cy="135.05" r="1.81"/><circle class="s" cx="183.37" cy="150.74" r="1.81"/><line class="t" x1="174.32" y1="125.53" x2="162.18" y2="131.75"/><line class="t" x1="174.32" y1="143.33" x2="162.18" y2="131.75"/><line class="t" x1="186.98" y1="135.05" x2="174.32" y2="125.53"/><line class="t" x1="174.32" y1="143.68" x2="186.52" y2="135.05"/><line class="t" x1="161.66" y1="148.1" x2="174.32" y2="143.68"/><line class="t" x1="187.28" y1="135.05" x2="183.37" y2="150.74"/><line class="t" x1="174.32" y1="159.09" x2="182.99" y2="150.94"/><line class="t" x1="161.6" y1="165.16" x2="174.32" y2="159.09"/><line class="t" x1="174.32" y1="143.33" x2="174.32" y2="159.09"/><line class="t" x1="161.58" y1="148.1" x2="173.92" y2="159.09"/><polyline class="u" points="104.25 100.84 104.25 75.93 129.44 75.93"/><polyline class="u" points="129.31 190.54 104.25 190.54 104.25 165.31"/><polyline class="u" points="218.86 165.56 218.86 190.54 193.71 190.54"/><polyline class="u" points="193.94 75.93 218.86 75.93 218.86 100.84"/><polyline class="v" points="477.08 122.94 477.08 114.77 485.34 114.77"/><polyline class="v" points="485.3 152.38 477.08 152.38 477.08 144.1"/><polyline class="v" points="514.69 144.18 514.69 152.38 506.43 152.38"/><polyline class="v" points="506.51 114.77 514.69 114.77 514.69 122.94"/></svg>